# xmcd
#
# Track frame offsets:
#	150
#	14132
#	29990
#	48331
#	63862
#	79758
#	95637
#	110567
#	129133
#	141237
#	158766
#	173609
#
# Disc length: 2434 seconds
#
# Revision: 5
# Processed by: cddbd v1.5.2PL0 Copyright (c) Steve Scherf et al.
# Submitted via: EasyCDDAExtractor 15.3.0.1
#
DISCID=a009800c
DTITLE=RBD - Celestial
DYEAR=2006
DGENRE=Latin
TTITLE0=Tal Vez Despues
TTITLE1=Ser O Parecer
TTITLE2=Dame
TTITLE3=Celestial
TTITLE4=Quiza
TTITLE5=Besame Sin Miedo
TTITLE6=Tu Dulce Voz
TTITLE7=Algun Dia
TTITLE8=Me Canse
TTITLE9=Aburrida Y Sola
TTITLE10=Es Por Amor
TTITLE11=Bonus Track Sorpresa
EXTD=
EXTT0=
EXTT1=
EXTT2=
EXTT3=
EXTT4=
EXTT5=
EXTT6=
EXTT7=
EXTT8=
EXTT9=
EXTT10=
EXTT11=
PLAYORDER=
